<svg version="1.1" id="Layer_1" xmlns="http://www.w3.org/2000/svg" xmlns:xlink="http://www.w3.org/1999/xlink" x="0px" y="0px"
	 width="100%" viewBox="0 0 400 400" enable-background="new 0 0 400 400" xml:space="preserve">
<path fill="#000000" opacity="1.000000" stroke="none" 
	d="
M274.000000,401.000000 
	C182.695053,401.000000 91.890091,401.000000 1.042571,401.000000 
	C1.042571,267.736725 1.042571,134.473419 1.042571,1.105061 
	C134.221558,1.105061 267.443207,1.105061 400.832458,1.105061 
	C400.832458,134.333160 400.832458,267.666565 400.832458,401.000000 
	C358.806824,401.000000 316.653412,401.000000 274.000000,401.000000 
M284.188416,334.670288 
	C296.250458,319.711334 301.345520,302.575378 299.908783,283.505096 
	C299.019226,271.697723 294.569702,261.334351 284.881897,254.256088 
	C278.777100,249.795685 271.908630,246.199966 264.989624,243.091415 
	C259.414917,240.586823 253.251007,239.393646 247.051834,237.529419 
	C250.156326,235.946365 253.003906,234.611893 255.740845,233.079758 
	C274.290771,222.695480 289.585236,209.010818 296.226105,188.232544 
	C303.729675,164.754974 298.590179,135.482544 264.106384,126.241432 
	C254.727646,123.728096 244.789581,122.346062 235.080963,122.194855 
	C203.097595,121.696716 171.101517,122.051575 139.110977,121.920624 
	C135.793869,121.907051 134.428574,122.899757 133.972321,126.165039 
	C133.056641,132.718491 134.625687,134.856384 141.352249,135.746552 
	C145.786423,136.333389 150.305847,136.728745 154.584091,137.931778 
	C160.559250,139.612000 162.827728,143.714676 161.736893,149.765549 
	C160.468781,156.799637 159.063354,163.809067 157.701904,170.826187 
	C146.843262,226.793106 135.930252,282.749573 125.153694,338.732300 
	C122.295532,353.580078 118.371078,357.909912 103.761475,361.005585 
	C95.013008,362.859344 93.264931,366.251495 96.168114,373.528015 
	C124.588470,373.041840 152.528503,372.619110 180.465744,372.058807 
	C191.612747,371.835266 202.860123,372.148438 213.876358,370.753204 
	C241.272720,367.283356 265.428528,356.836212 284.188416,334.670288 
M173.618835,66.144539 
	C162.820862,73.031517 152.022888,79.918503 141.224899,86.805481 
	C141.325607,87.123405 141.426300,87.441322 141.526993,87.759247 
	C143.691757,87.759247 145.856522,87.759247 148.021271,87.759247 
	C148.066162,88.013649 148.111069,88.268051 148.155960,88.522461 
	C134.632843,95.485550 121.109711,102.448639 107.482574,109.465286 
	C108.280403,109.820305 108.988029,110.135185 109.909966,110.545425 
	C108.271873,111.920074 106.758049,113.190437 105.244232,114.460800 
	C110.104713,114.770859 114.636818,114.332031 118.914391,113.046349 
	C132.101517,109.082779 145.120941,104.549904 158.354156,100.756775 
	C163.569504,99.261864 169.177612,99.137146 174.606873,98.388496 
	C174.648087,98.787231 174.689301,99.185959 174.730499,99.584694 
	C173.844635,100.142570 172.958755,100.700439 170.971207,101.952095 
	C174.997406,101.952095 177.640182,101.952095 180.282974,101.952095 
	C179.982895,102.329819 179.682816,102.707542 179.382736,103.085258 
	C183.860306,108.053505 188.337875,113.021751 194.177780,119.501648 
	C192.875839,119.439972 191.699539,119.384247 190.523239,119.328522 
	C190.763977,119.659096 191.004715,119.989662 191.245468,120.320236 
	C196.143814,120.320236 201.042175,120.320236 206.776077,120.320236 
	C205.046768,119.400620 203.721008,118.905563 202.643753,118.084480 
	C199.012680,115.316856 194.908768,112.906059 192.025314,109.483063 
	C187.731003,104.385239 189.135849,98.037361 194.793701,94.579048 
	C198.898438,92.070053 203.225037,89.897041 207.562332,87.801079 
	C216.997437,83.241661 223.908234,76.487465 226.713181,66.145447 
	C229.264969,56.736847 234.118896,49.519814 244.150024,46.938251 
	C244.300491,46.899529 244.358643,46.502045 244.519135,46.137344 
	C242.107330,44.089237 239.735153,42.004131 237.288712,40.010101 
	C228.971664,33.231041 223.514389,33.406326 214.165649,40.741524 
	C210.254944,43.809952 206.662384,47.392223 202.438324,49.930752 
	C193.201935,55.481525 183.654129,60.514088 173.618835,66.144539 
z"/>
<path fill="#FDFDFD" opacity="1.000000" stroke="none" 
	d="
M283.973022,334.953003 
	C265.428528,356.836212 241.272720,367.283356 213.876358,370.753204 
	C202.860123,372.148438 191.612747,371.835266 180.465744,372.058807 
	C152.528503,372.619110 124.588470,373.041840 96.168114,373.528015 
	C93.264931,366.251495 95.013008,362.859344 103.761475,361.005585 
	C118.371078,357.909912 122.295532,353.580078 125.153694,338.732300 
	C135.930252,282.749573 146.843262,226.793106 157.701904,170.826187 
	C159.063354,163.809067 160.468781,156.799637 161.736893,149.765549 
	C162.827728,143.714676 160.559250,139.612000 154.584091,137.931778 
	C150.305847,136.728745 145.786423,136.333389 141.352249,135.746552 
	C134.625687,134.856384 133.056641,132.718491 133.972321,126.165039 
	C134.428574,122.899757 135.793869,121.907051 139.110977,121.920624 
	C171.101517,122.051575 203.097595,121.696716 235.080963,122.194855 
	C244.789581,122.346062 254.727646,123.728096 264.106384,126.241432 
	C298.590179,135.482544 303.729675,164.754974 296.226105,188.232544 
	C289.585236,209.010818 274.290771,222.695480 255.740845,233.079758 
	C253.003906,234.611893 250.156326,235.946365 247.051834,237.529419 
	C253.251007,239.393646 259.414917,240.586823 264.989624,243.091415 
	C271.908630,246.199966 278.777100,249.795685 284.881897,254.256088 
	C294.569702,261.334351 299.019226,271.697723 299.908783,283.505096 
	C301.345520,302.575378 296.250458,319.711334 283.973022,334.953003 
M168.460052,347.804749 
	C168.247437,354.082886 169.188492,355.410034 175.402008,355.131012 
	C184.691650,354.713837 194.096756,354.531708 203.204666,352.880859 
	C223.415268,349.217621 239.094086,339.029816 246.560532,318.918121 
	C250.692657,307.787811 251.500977,296.142639 249.900009,284.459900 
	C248.664124,275.441345 244.549698,267.656464 237.299576,261.917328 
	C222.448349,250.161224 205.043335,249.327347 187.308060,249.991531 
	C186.964844,251.844452 186.731018,253.153656 186.479233,254.459366 
	C180.531601,285.303802 174.582047,316.147858 168.460052,347.804749 
M191.701126,232.279388 
	C194.361755,232.207642 197.034927,232.276962 199.680969,232.041321 
	C217.297974,230.472519 232.244049,224.196274 241.516953,208.052139 
	C249.086700,194.873199 251.233734,180.546509 249.783859,165.693787 
	C248.949677,157.148285 245.372803,149.665009 237.795959,144.793182 
	C228.704590,138.947525 218.542740,138.490082 208.119583,138.641785 
	C204.977890,155.457382 201.899933,171.771027 198.888702,188.097000 
	C196.209534,202.622726 193.604279,217.162109 191.701126,232.279388 
z"/>
<path fill="#FBFBFB" opacity="1.000000" stroke="none" 
	d="
M173.926178,65.951431 
	C183.654129,60.514088 193.201935,55.481525 202.438324,49.930752 
	C206.662384,47.392223 210.254944,43.809952 214.165649,40.741524 
	C223.514389,33.406326 228.971664,33.231041 237.288712,40.010101 
	C239.735153,42.004131 242.107330,44.089237 244.519135,46.137344 
	C244.358643,46.502045 244.300491,46.899529 244.150024,46.938251 
	C234.118896,49.519814 229.264969,56.736847 226.713181,66.145447 
	C223.908234,76.487465 216.997437,83.241661 207.562332,87.801079 
	C203.225037,89.897041 198.898438,92.070053 194.793701,94.579048 
	C189.135849,98.037361 187.731003,104.385239 192.025314,109.483063 
	C194.908768,112.906059 199.012680,115.316856 202.643753,118.084480 
	C203.721008,118.905563 205.046768,119.400620 206.776077,120.320236 
	C201.042175,120.320236 196.143814,120.320236 191.245468,120.320236 
	C191.004715,119.989662 190.763977,119.659096 190.523239,119.328522 
	C191.699539,119.384247 192.875839,119.439972 194.177780,119.501648 
	C188.337875,113.021751 183.860306,108.053505 179.382736,103.085258 
	C179.682816,102.707542 179.982895,102.329819 180.282974,101.952095 
	C177.640182,101.952095 174.997406,101.952095 170.971207,101.952095 
	C172.958755,100.700439 173.844635,100.142570 174.730499,99.584694 
	C174.689301,99.185959 174.648087,98.787231 174.606873,98.388496 
	C169.177612,99.137146 163.569504,99.261864 158.354156,100.756775 
	C145.120941,104.549904 132.101517,109.082779 118.914391,113.046349 
	C114.636818,114.332031 110.104713,114.770859 105.244232,114.460800 
	C106.758049,113.190437 108.271873,111.920074 109.909966,110.545425 
	C108.988029,110.135185 108.280403,109.820305 107.482574,109.465286 
	C121.109711,102.448639 134.632843,95.485550 148.155960,88.522461 
	C148.111069,88.268051 148.066162,88.013649 148.021271,87.759247 
	C145.856522,87.759247 143.691757,87.759247 141.526993,87.759247 
	C141.426300,87.441322 141.325607,87.123405 141.224899,86.805481 
	C152.022888,79.918503 162.820862,73.031517 173.926178,65.951431 
z"/>
<path fill="#010101" opacity="1.000000" stroke="none" 
	d="
M168.546448,347.398376 
	C174.582047,316.147858 180.531601,285.303802 186.479233,254.459366 
	C186.731018,253.153656 186.964844,251.844452 187.308060,249.991531 
	C205.043335,249.327347 222.448349,250.161224 237.299576,261.917328 
	C244.549698,267.656464 248.664124,275.441345 249.900009,284.459900 
	C251.500977,296.142639 250.692657,307.787811 246.560532,318.918121 
	C239.094086,339.029816 223.415268,349.217621 203.204666,352.880859 
	C194.096756,354.531708 184.691650,354.713837 175.402008,355.131012 
	C169.188492,355.410034 168.247437,354.082886 168.546448,347.398376 
z"/>
<path fill="#020202" opacity="1.000000" stroke="none" 
	d="
M191.333771,231.987427 
	C193.604279,217.162109 196.209534,202.622726 198.888702,188.097000 
	C201.899933,171.771027 204.977890,155.457382 208.119583,138.641785 
	C218.542740,138.490082 228.704590,138.947525 237.795959,144.793182 
	C245.372803,149.665009 248.949677,157.148285 249.783859,165.693787 
	C251.233734,180.546509 249.086700,194.873199 241.516953,208.052139 
	C232.244049,224.196274 217.297974,230.472519 199.680969,232.041321 
	C197.034927,232.276962 194.361755,232.207642 191.333771,231.987427 
z"/>
</svg>